<svg width="32" height="16" viewBox="0 0 32 16" fill="none" xmlns="http://www.w3.org/2000/svg">
<path d="M15.9959 7.25634C18.362 7.25634 20.264 5.6289 20.264 3.62877C20.2668 1.62279 18.362 0 15.9959 0C13.6462 0 11.7388 1.62279 11.7388 3.62877C11.7388 5.63128 13.6463 7.25634 15.9959 7.25634Z" fill="black"/>
<path d="M19.4193 7.84747H12.5832C11.361 7.84747 10.3599 8.80083 10.3599 9.97028V15.8118C10.3599 15.8761 10.3983 15.9333 10.4025 15.9999H21.5959C21.6041 15.9334 21.6358 15.8761 21.6358 15.8118V9.97028C21.6399 8.80083 20.6388 7.84747 19.4193 7.84747Z" fill="black"/>
<path d="M27.4766 8.98777C29.3758 8.98777 30.8988 7.68746 30.8988 6.08103C30.8988 4.47461 29.3758 3.17197 27.4766 3.17197C25.5911 3.17197 24.0654 4.47461 24.0654 6.08103C24.0614 7.68633 25.5912 8.98777 27.4766 8.98777Z" fill="black"/>
<path d="M30.2217 9.4621H24.7437C23.7604 9.4621 22.957 10.2262 22.957 11.1667V15.8469C22.957 15.8972 22.9859 15.9451 22.99 16H31.9685C31.9726 15.9451 32 15.8972 32 15.8469V11.1667C32.0042 10.2262 31.2022 9.4621 30.2217 9.4621Z" fill="black"/>
<path d="M4.52095 8.98777C6.41742 8.98777 7.94177 7.68746 7.94177 6.08103C7.94177 4.47461 6.41742 3.17197 4.52095 3.17197C2.63409 3.17197 1.1084 4.47461 1.1084 6.08103C1.1084 7.68746 2.63409 8.98777 4.52095 8.98777Z" fill="black"/>
<path d="M7.26458 9.4621H1.78111C0.800632 9.4621 0 10.2262 0 11.1667V15.8469C0 15.8972 0.0288396 15.9451 0.0343146 16H9.01278C9.01692 15.9451 9.04302 15.8972 9.04302 15.8469V11.1667C9.04576 10.2262 8.24373 9.4621 7.26458 9.4621Z" fill="black"/>
</svg>
