<svg width="48" height="48" viewBox="0 0 48 48" fill="none" xmlns="http://www.w3.org/2000/svg">
<path fill-rule="evenodd" clip-rule="evenodd" d="M30.9402 30.7758L16.5566 45.1593C12.769 48.9469 6.62818 48.9469 2.84067 45.1593C-0.946891 41.372 -0.946888 35.231 2.84067 31.4434L17.2242 17.0599C17.168 16.5244 17.1392 15.9807 17.1392 15.4304C17.1392 7.47846 23.1543 0.931447 30.8826 0.0911421C31.4367 0.030895 31.9997 0 32.5696 0C34.9377 0 37.1809 0.533377 39.1858 1.48649L31.8327 8.8398C29.824 10.8485 29.824 14.1051 31.8327 16.1137C33.8414 18.1224 37.0979 18.1224 39.1066 16.1137L46.4789 8.74156C47.4538 10.7651 48 13.0339 48 15.4304C48 15.9594 47.9733 16.4823 47.9215 16.9976C47.1359 24.7835 40.5626 30.8608 32.5696 30.8608C32.0193 30.8608 31.4758 30.832 30.9402 30.7758ZM28.4034 23.6139L11.7072 40.31C10.5979 41.4193 8.7993 41.4193 7.68996 40.31C6.58062 39.2007 6.58062 37.4022 7.68996 36.2926L24.3861 19.5966L28.4034 23.6139Z" fill="black"/>
</svg>
