<svg width="16" height="17" viewBox="0 0 16 17" fill="none" xmlns="http://www.w3.org/2000/svg">
<path d="M5.14078 11.3167H13.8492C14.0887 11.3167 14.2966 11.1518 14.351 10.9187L15.9865 3.918C16.0223 3.76481 15.9861 3.60371 15.8884 3.48048C15.7906 3.35725 15.642 3.28541 15.4847 3.28541H3.95695L3.4031 0.823477C3.35655 0.616518 3.19003 0.457863 2.98104 0.421343L0.615823 0.0079408C0.330052 -0.0420468 0.0578863 0.149177 0.00793306 0.434948C-0.0420202 0.720719 0.149135 0.992851 0.43494 1.0428L2.45506 1.39588L4.48352 10.4125C3.82585 10.6747 3.35954 11.3174 3.35954 12.0676C3.35954 13.0499 4.15862 13.8491 5.14078 13.8491H15.3852C15.6698 13.8491 15.9005 13.6183 15.9005 13.3337C15.9005 13.0491 15.6698 12.8184 15.3852 12.8184H5.14078C4.7269 12.8184 4.39021 12.4816 4.39021 12.0676C4.39021 11.6536 4.7269 11.3167 5.14078 11.3167ZM8.97385 10.2861H7.91638L7.36466 7.81642H8.97382V10.2861H8.97385ZM13.4518 4.31608H14.8351L14.2581 6.78574H12.9001L13.4518 4.31608ZM14.0173 7.81645L13.4404 10.2861H12.1182L12.6699 7.81645H14.0173ZM10.0045 4.31608H12.3958L11.844 6.78574H10.0045V4.31608H10.0045ZM10.0045 7.81645H11.6138L11.0621 10.2861H10.0045V7.81645ZM8.97385 4.31608V6.78574H7.13445L6.58273 4.31608H8.97385ZM6.86029 10.2861H5.5378L4.97632 7.81642H6.30857L6.86029 10.2861ZM5.52663 4.31608L6.07835 6.78574H4.74446L4.18885 4.31608H5.52663Z" fill="black"/>
<path d="M7.53059 15.7046C7.53059 16.3214 7.03103 16.8217 6.41396 16.8217C5.79693 16.8217 5.29651 16.3214 5.29651 15.7046C5.29651 15.0875 5.79693 14.5875 6.41396 14.5875C7.03103 14.5875 7.53059 15.0875 7.53059 15.7046Z" fill="black"/>
<path d="M13.6708 15.7046C13.6708 16.3214 13.171 16.8217 12.5539 16.8217C11.9369 16.8217 11.4365 16.3214 11.4365 15.7046C11.4365 15.0875 11.9369 14.5875 12.5539 14.5875C13.171 14.5875 13.6708 15.0875 13.6708 15.7046Z" fill="black"/>
</svg>
