<svg width="14" height="20" viewBox="0 0 14 20" fill="none" xmlns="http://www.w3.org/2000/svg">
<path d="M7 0.28894C3.14022 0.28894 0 3.43842 0 7.30971C0 11.0577 6.38153 18.7981 6.65318 19.1258C6.73888 19.2291 6.86595 19.2889 7 19.2889C7.13399 19.2889 7.26112 19.2292 7.34682 19.1258C7.61853 18.7981 14 11.0577 14 7.30971C14 3.43842 10.8598 0.28894 7 0.28894ZM7 18.1187C6.43415 17.41 5.25849 15.9001 4.0951 14.1741C2.00624 11.075 0.902085 8.70136 0.902085 7.30971C0.902085 3.9373 3.63763 1.1937 7 1.1937C10.3624 1.1937 13.0979 3.9373 13.0979 7.30971C13.0979 8.7013 11.9938 11.075 9.90489 14.1741C8.74144 15.9001 7.56585 17.41 7 18.1187Z" fill="black"/>
<path d="M9.29463 13.1942C9.08824 13.0543 8.80781 13.1089 8.66841 13.3159C8.05974 14.2196 7.37788 15.1667 6.64178 16.1309C6.49035 16.3293 6.52788 16.6132 6.72567 16.7651C6.80746 16.8279 6.90387 16.8583 6.99955 16.8583C7.1351 16.8583 7.26921 16.7972 7.35798 16.6809C8.1049 15.7026 8.79728 14.7408 9.41587 13.8224C9.55534 13.6154 9.50109 13.3341 9.29463 13.1942Z" fill="black"/>
<path d="M6.99982 3.7572C4.96044 3.7572 3.30127 5.4213 3.30127 7.46673C3.30127 9.51215 4.96044 11.1762 6.99982 11.1762C9.03919 11.1762 10.6984 9.51215 10.6984 7.46673C10.6984 5.4213 9.03919 3.7572 6.99982 3.7572ZM6.99982 10.2715C5.45785 10.2715 4.20335 9.01327 4.20335 7.46673C4.20335 5.92019 5.45785 4.66196 6.99982 4.66196C8.54184 4.66196 9.79628 5.92019 9.79628 7.46673C9.79628 9.01327 8.54184 10.2715 6.99982 10.2715Z" fill="black"/>
</svg>
