<svg width="24" height="25" viewBox="0 0 24 25" fill="none" xmlns="http://www.w3.org/2000/svg">
<path fill-rule="evenodd" clip-rule="evenodd" d="M5.60313 16.6661L0.832559 22.1374L3.16659 24.0221L8.56265 17.8334C9.67278 18.1302 10.8223 18.286 12 18.286C16.5855 18.286 20.7438 15.9234 23.8122 12.0859C24.0626 11.7715 24.0626 11.3323 23.8122 11.0179C22.2765 9.09497 20.4679 7.54266 18.4693 6.47164L22.4502 1.90599L20.1162 0.0212402L15.5232 5.28892C14.3865 4.97709 13.2081 4.81311 12 4.81311C7.41454 4.81311 3.25621 7.17572 0.187788 11.0132C-0.0625959 11.3276 -0.0625959 11.7669 0.187788 12.0813C1.74199 14.0274 3.57581 15.5939 5.60313 16.6661ZM10.1766 15.9825C10.838 16.2242 11.5669 16.3384 12.3289 16.2933C14.8377 16.1407 16.8751 14.222 17.0371 11.8593C17.1074 10.8052 16.8131 9.81971 16.2618 9.00337L14.6285 10.8766C14.7038 11.1403 14.7353 11.421 14.7149 11.7114C14.6266 12.9921 13.5268 14.0231 12.1767 14.1017C12.0551 14.1089 11.935 14.1086 11.8169 14.1012L10.1766 15.9825ZM9.40373 12.3072L7.78496 14.1638C7.20361 13.3344 6.89062 12.3233 6.96287 11.2398C7.11998 8.87255 9.15741 6.95379 11.6711 6.80584C12.464 6.75887 13.2209 6.88445 13.9034 7.14662L12.2864 9.00116C12.1369 8.98666 11.9838 8.98355 11.8282 8.99276C10.4732 9.07598 9.37343 10.107 9.28997 11.3831C9.26735 11.7065 9.30888 12.0178 9.40373 12.3072Z" fill="black"/>
</svg>
