<svg width="16" height="15" viewBox="0 0 16 15" fill="none" xmlns="http://www.w3.org/2000/svg">
<path d="M14.2831 0.941445C13.4921 0.316789 12.6194 0 11.689 0C10.5151 0 9.24706 0.519061 8 1.5061C6.75294 0.519061 5.4849 0 4.311 0C3.38061 0 2.50785 0.316789 1.71693 0.941445C0.559732 1.85552 -0.0176914 3.009 0.000412838 4.36978C0.0626739 9.02951 7.36672 14.5278 7.67758 14.7596L8 15L8.32242 14.7596C8.63336 14.5278 15.9374 9.02951 15.9996 4.36978C16.0177 3.009 15.4403 1.85552 14.2831 0.941445ZM11.3213 10.5736C9.96902 11.9825 8.60451 13.1039 8 13.5816C7.39549 13.1039 6.03098 11.9826 4.67875 10.5736C2.36206 8.15965 1.12604 6.00869 1.10426 4.35331C1.09116 3.36116 1.51057 2.54262 2.38635 1.85087C2.98048 1.38152 3.62804 1.14357 4.311 1.14357C5.60354 1.14357 6.83809 1.97736 7.64608 2.67681L8 2.98315L8.35392 2.67681C9.16191 1.97736 10.3965 1.14357 11.689 1.14357C12.372 1.14357 13.0195 1.38152 13.6136 1.85087C14.4894 2.54262 14.9088 3.36116 14.8957 4.35331C14.874 6.00877 13.6379 8.15965 11.3213 10.5736Z" fill="black"/>
</svg>
