<svg width="48" height="48" viewBox="0 0 48 48" fill="none" xmlns="http://www.w3.org/2000/svg">
<path d="M42.8492 3.01263C40.4764 1.01372 37.8582 0 35.067 0C31.5453 0 27.7412 1.66099 24 4.81952C20.2588 1.66099 16.4547 0 12.933 0C10.1418 0 7.52356 1.01372 5.1508 3.01263C1.6792 5.93766 -0.0530743 9.62879 0.00123851 13.9833C0.188022 28.8944 22.1002 46.4891 23.0327 47.2307L24 48L24.9673 47.2307C25.9001 46.4891 47.8122 28.8944 47.9988 13.9833C48.0531 9.62879 46.3208 5.93766 42.8492 3.01263ZM33.9638 33.8354C29.9071 38.3441 25.8135 41.9325 24 43.4611C22.1865 41.9325 18.0929 38.3444 14.0362 33.8354C7.08619 26.1109 3.37813 19.2278 3.31278 13.9306C3.27348 10.7557 4.53172 8.13638 7.15905 5.92278C8.94144 4.42086 10.8841 3.65941 12.933 3.65941C16.8106 3.65941 20.5143 6.32754 22.9383 8.56578L24 9.54608L25.0618 8.56578C27.4857 6.32754 31.1894 3.65941 35.067 3.65941C37.1159 3.65941 39.0586 4.42086 40.8409 5.92278C43.4683 8.13638 44.7265 10.7557 44.6872 13.9306C44.6219 19.2281 40.9136 26.1109 33.9638 33.8354Z" fill="#9370D8"/>
</svg>
