<svg width="16" height="17" viewBox="0 0 16 17" fill="none" xmlns="http://www.w3.org/2000/svg">
<path d="M0 8.28734C0 8.53656 0.199377 8.73594 0.448598 8.73594H11.2847L8.96199 11.0587C8.78588 11.2348 8.78588 11.5173 8.96199 11.6934C9.04839 11.7798 9.16469 11.8263 9.27767 11.8263C9.39065 11.8263 9.50696 11.7831 9.59336 11.6934L12.6837 8.60302C12.8598 8.42691 12.8598 8.14446 12.6837 7.96834L9.59336 4.878C9.41724 4.70188 9.13479 4.70188 8.95867 4.878C8.78255 5.05411 8.78255 5.33656 8.95867 5.51268L11.2814 7.83542H0.448598C0.199377 7.83875 0 8.03812 0 8.28734Z" fill="black"/>
<path d="M12.707 0.289001H3.28972C1.47539 0.289001 0 1.76439 0 3.57872V5.51268C0 5.7619 0.199377 5.96128 0.448598 5.96128C0.697819 5.96128 0.897196 5.7619 0.897196 5.51268V3.57872C0.897196 2.25951 1.97051 1.1862 3.28972 1.1862H12.7103C14.0295 1.1862 15.1028 2.25951 15.1028 3.57872V12.9993C15.1028 14.3185 14.0295 15.3918 12.7103 15.3918H3.28972C1.97051 15.3918 0.897196 14.3185 0.897196 12.9993V11.0886C0.897196 10.8394 0.697819 10.64 0.448598 10.64C0.199377 10.64 0 10.8394 0 11.0886V12.9993C0 14.8136 1.47539 16.289 3.28972 16.289H12.7103C14.5246 16.289 16 14.8136 16 12.9993V3.57872C15.9967 1.76439 14.5213 0.289001 12.707 0.289001Z" fill="black"/>
</svg>
