<svg width="24" height="13" viewBox="0 0 24 13" fill="none" xmlns="http://www.w3.org/2000/svg">
<path d="M0.749982 1.536H23.25C23.664 1.536 24 1.29955 24 1.00826C24 0.716935 23.664 0.48053 23.25 0.48053H0.749982C0.336027 0.48053 0 0.716935 0 1.00826C0 1.29959 0.336027 1.536 0.749982 1.536Z" fill="black"/>
<path d="M23.25 5.758H0.749982C0.335965 5.758 0 5.99444 0 6.28573C0 6.57701 0.336027 6.81346 0.749982 6.81346H23.25C23.664 6.81346 24 6.57701 24 6.28573C24 5.99444 23.664 5.758 23.25 5.758Z" fill="black"/>
<path d="M23.25 11.0355H0.749982C0.335965 11.0355 0 11.2719 0 11.5632C0 11.8545 0.336027 12.0909 0.749982 12.0909H23.25C23.664 12.0909 24 11.8545 24 11.5632C24.0001 11.2719 23.664 11.0355 23.25 11.0355Z" fill="black"/>
</svg>
