<svg width="24" height="24" viewBox="0 0 24 24" fill="none" xmlns="http://www.w3.org/2000/svg">
<path d="M20.4855 8.48522V3.51453H15.5146L12 0L8.48547 3.51453H3.51453V8.48522L0 12L3.51453 15.5146V20.4852H8.48547L12 24L15.5145 20.4852H20.4854V15.5146L24 12L20.4855 8.48522ZM19.4819 15.099V19.4816H15.099L12 22.5809L8.90101 19.4816H4.51812V15.099L1.41913 12L4.51812 8.90082V4.51812H8.90101L12 1.41913L15.0989 4.51812H19.4818V8.90077L22.5809 12L19.4819 15.099Z" fill="black"/>
<path d="M8.03424 12.2997L6.00815 9.64169H5.14581V13.7705H6.06732V11.1834L8.03424 13.7705H8.95569V9.64169H8.03424V12.2997Z" fill="black"/>
<path d="M10.8931 12.0989H12.7417V11.3132H10.8931V10.4627H12.9485V9.64169H9.97162V13.7705H13.0133V12.9553H10.8931V12.0989Z" fill="black"/>
<path d="M17.5442 12.0162L16.8176 9.64169H15.8546L15.1223 12.0162L14.3072 9.64169H13.309L14.7501 13.7705H15.4353L16.3331 10.8998L17.2369 13.7705H17.922L19.3634 9.64169H18.3652L17.5442 12.0162Z" fill="black"/>
</svg>
